<mxfile host="app.diagrams.net" modified="2022-12-14T06:36:18.141Z" agent="5.0 (Windows NT 10.0; Win64; x64) AppleWebKit/537.36 (KHTML, like Gecko) Chrome/108.0.0.0 Safari/537.36" version="20.6.2" etag="Iti-PFRULuZYVJqcnuKR" type="github">
  <diagram id="st12VOR5KobG0JaCpjlv" name="第 1 页">
    <mxGraphModel dx="499" dy="299" grid="1" gridSize="10" guides="1" tooltips="1" connect="1" arrows="1" fold="1" page="1" pageScale="1" pageWidth="827" pageHeight="1169" math="0" shadow="0">
      <root>
        <mxCell id="0" />
        <mxCell id="1" parent="0" />
        <mxCell id="i3SALakO06gzPMtryLr6-6" style="edgeStyle=orthogonalEdgeStyle;rounded=0;orthogonalLoop=1;jettySize=auto;html=1;" edge="1" parent="1" source="i3SALakO06gzPMtryLr6-2" target="i3SALakO06gzPMtryLr6-3">
          <mxGeometry relative="1" as="geometry">
            <Array as="points">
              <mxPoint x="351" y="320" />
              <mxPoint x="190" y="320" />
            </Array>
          </mxGeometry>
        </mxCell>
        <mxCell id="i3SALakO06gzPMtryLr6-7" style="edgeStyle=orthogonalEdgeStyle;rounded=0;orthogonalLoop=1;jettySize=auto;html=1;exitX=0.5;exitY=1;exitDx=0;exitDy=0;entryX=0.48;entryY=0.009;entryDx=0;entryDy=0;entryPerimeter=0;" edge="1" parent="1" source="i3SALakO06gzPMtryLr6-2" target="i3SALakO06gzPMtryLr6-4">
          <mxGeometry relative="1" as="geometry" />
        </mxCell>
        <mxCell id="i3SALakO06gzPMtryLr6-8" style="edgeStyle=orthogonalEdgeStyle;rounded=0;orthogonalLoop=1;jettySize=auto;html=1;exitX=0.5;exitY=1;exitDx=0;exitDy=0;entryX=0.5;entryY=0;entryDx=0;entryDy=0;" edge="1" parent="1" source="i3SALakO06gzPMtryLr6-2" target="i3SALakO06gzPMtryLr6-5">
          <mxGeometry relative="1" as="geometry">
            <Array as="points">
              <mxPoint x="351" y="320" />
              <mxPoint x="523" y="320" />
            </Array>
          </mxGeometry>
        </mxCell>
        <mxCell id="i3SALakO06gzPMtryLr6-2" value="暗态图像增强" style="rounded=0;whiteSpace=wrap;html=1;" vertex="1" parent="1">
          <mxGeometry x="296" y="240" width="110" height="60" as="geometry" />
        </mxCell>
        <mxCell id="i3SALakO06gzPMtryLr6-12" style="edgeStyle=orthogonalEdgeStyle;rounded=0;orthogonalLoop=1;jettySize=auto;html=1;entryX=0.5;entryY=0;entryDx=0;entryDy=0;" edge="1" parent="1" source="i3SALakO06gzPMtryLr6-3" target="i3SALakO06gzPMtryLr6-10">
          <mxGeometry relative="1" as="geometry" />
        </mxCell>
        <mxCell id="i3SALakO06gzPMtryLr6-13" style="edgeStyle=orthogonalEdgeStyle;rounded=0;orthogonalLoop=1;jettySize=auto;html=1;entryX=0.5;entryY=0;entryDx=0;entryDy=0;startArrow=block;startFill=1;" edge="1" parent="1" target="i3SALakO06gzPMtryLr6-9">
          <mxGeometry relative="1" as="geometry">
            <mxPoint x="260" y="430" as="sourcePoint" />
            <Array as="points">
              <mxPoint x="260" y="431" />
              <mxPoint x="260" y="410" />
              <mxPoint x="120" y="410" />
            </Array>
          </mxGeometry>
        </mxCell>
        <mxCell id="i3SALakO06gzPMtryLr6-3" value="传统图像增强方法" style="rounded=0;whiteSpace=wrap;html=1;" vertex="1" parent="1">
          <mxGeometry x="135" y="340" width="110" height="60" as="geometry" />
        </mxCell>
        <mxCell id="i3SALakO06gzPMtryLr6-16" style="edgeStyle=orthogonalEdgeStyle;rounded=0;orthogonalLoop=1;jettySize=auto;html=1;entryX=0.5;entryY=0;entryDx=0;entryDy=0;startArrow=none;startFill=0;" edge="1" parent="1" source="i3SALakO06gzPMtryLr6-4" target="i3SALakO06gzPMtryLr6-14">
          <mxGeometry relative="1" as="geometry" />
        </mxCell>
        <mxCell id="i3SALakO06gzPMtryLr6-18" style="edgeStyle=orthogonalEdgeStyle;rounded=0;orthogonalLoop=1;jettySize=auto;html=1;exitX=0.5;exitY=1;exitDx=0;exitDy=0;entryX=0.5;entryY=0;entryDx=0;entryDy=0;startArrow=none;startFill=0;" edge="1" parent="1" source="i3SALakO06gzPMtryLr6-4" target="i3SALakO06gzPMtryLr6-17">
          <mxGeometry relative="1" as="geometry" />
        </mxCell>
        <mxCell id="i3SALakO06gzPMtryLr6-4" value="基于光照建模方法" style="rounded=0;whiteSpace=wrap;html=1;" vertex="1" parent="1">
          <mxGeometry x="300" y="340" width="106" height="60" as="geometry" />
        </mxCell>
        <mxCell id="i3SALakO06gzPMtryLr6-20" style="edgeStyle=orthogonalEdgeStyle;rounded=0;orthogonalLoop=1;jettySize=auto;html=1;exitX=0.5;exitY=1;exitDx=0;exitDy=0;entryX=0.5;entryY=0;entryDx=0;entryDy=0;startArrow=none;startFill=0;" edge="1" parent="1" source="i3SALakO06gzPMtryLr6-5" target="i3SALakO06gzPMtryLr6-19">
          <mxGeometry relative="1" as="geometry" />
        </mxCell>
        <mxCell id="i3SALakO06gzPMtryLr6-22" style="edgeStyle=orthogonalEdgeStyle;rounded=0;orthogonalLoop=1;jettySize=auto;html=1;exitX=0.5;exitY=1;exitDx=0;exitDy=0;entryX=0.5;entryY=0;entryDx=0;entryDy=0;startArrow=none;startFill=0;" edge="1" parent="1" source="i3SALakO06gzPMtryLr6-5" target="i3SALakO06gzPMtryLr6-21">
          <mxGeometry relative="1" as="geometry" />
        </mxCell>
        <mxCell id="i3SALakO06gzPMtryLr6-5" value="深度学习相关方法" style="rounded=0;whiteSpace=wrap;html=1;" vertex="1" parent="1">
          <mxGeometry x="470" y="340" width="106" height="60" as="geometry" />
        </mxCell>
        <mxCell id="i3SALakO06gzPMtryLr6-9" value="直方图均衡化" style="rounded=0;whiteSpace=wrap;html=1;" vertex="1" parent="1">
          <mxGeometry x="90" y="430" width="60" height="50" as="geometry" />
        </mxCell>
        <mxCell id="i3SALakO06gzPMtryLr6-10" value="伽马矫正" style="rounded=0;whiteSpace=wrap;html=1;" vertex="1" parent="1">
          <mxGeometry x="160" y="430" width="60" height="50" as="geometry" />
        </mxCell>
        <mxCell id="i3SALakO06gzPMtryLr6-11" value="色彩对比度" style="rounded=0;whiteSpace=wrap;html=1;" vertex="1" parent="1">
          <mxGeometry x="220" y="430" width="60" height="50" as="geometry" />
        </mxCell>
        <mxCell id="i3SALakO06gzPMtryLr6-14" value="SSR-Retinex" style="rounded=0;whiteSpace=wrap;html=1;" vertex="1" parent="1">
          <mxGeometry x="290" y="430" width="60" height="50" as="geometry" />
        </mxCell>
        <mxCell id="i3SALakO06gzPMtryLr6-17" value="MSR-Retinex" style="rounded=0;whiteSpace=wrap;html=1;" vertex="1" parent="1">
          <mxGeometry x="360" y="430" width="60" height="50" as="geometry" />
        </mxCell>
        <mxCell id="i3SALakO06gzPMtryLr6-19" value="Retinex-Net" style="rounded=0;whiteSpace=wrap;html=1;" vertex="1" parent="1">
          <mxGeometry x="450" y="430" width="60" height="50" as="geometry" />
        </mxCell>
        <mxCell id="i3SALakO06gzPMtryLr6-21" value="&lt;span style=&quot;color: rgb(51, 51, 51); font-family: sans-serif; text-align: justify; background-color: rgb(255, 255, 255);&quot;&gt;&lt;font style=&quot;font-size: 12px;&quot;&gt;Deep Illumination Estimation&lt;/font&gt;&lt;/span&gt;" style="rounded=0;whiteSpace=wrap;html=1;" vertex="1" parent="1">
          <mxGeometry x="540" y="430" width="70" height="50" as="geometry" />
        </mxCell>
      </root>
    </mxGraphModel>
  </diagram>
</mxfile>
